<svg width="401" height="138" xmlns="http://www.w3.org/2000/svg"><g><title>background</title><rect x="-1" y="-1" width="403" height="142" id="canvas_background" fill="none"/></g><g><title>Layer 1</title><g id="svg_1"><path fill="#00a0ff" d="m109.6 16.2c-2.5-1.9-5-3.5-7.7-5-1.9-1.1-4.3-.6-5.6 1.2L79.8 34.3l-1.2 1.6c-1.8 2.4-4.6 3.7-7.6 3.5-1.1.0-2.2.0-3.2.0-8.3.5-16.3 4.5-21.7 11.7-4.3 5.8-6.2 12.6-5.9 19.2.1 1.2.8 2.3 1.9 2.8 2.3 1 4 3.1 4.5 5.8.6 3.8-1.7 7.6-5.4 8.7-4.4 1.3-8.8-1.4-9.8-5.7-.5-2.4.1-4.7 1.5-6.5.8-1 1.2-2.2 1-3.4-.8-8.6 1.5-17.4 7.1-24.8 7-9.3 17.7-14.3 28.6-14.3 2.1.0 4.1-1 5.3-2.7l15.2-20.2c1.2-1.6.4-3.8-1.5-4.4-25.4-7.5-53.9.9-71 23.1-22.1 28.8-16.7 70.3 12 92.5 2.7 2.1 5.5 3.9 8.4 5.5 1.9 1.1 4.3.5 5.6-1.2l16.5-21.9 1.2-1.6c1.8-2.4 4.6-3.7 7.6-3.5 1.1.0 2.2.0 3.2.0 8.3-.5 16.3-4.5 21.7-11.7 4.3-5.8 6.2-12.6 5.9-19.2-.1-1.2-.8-2.3-1.9-2.8-2.3-1-4-3.1-4.5-5.8-.6-3.8 1.7-7.6 5.4-8.7 4.4-1.3 8.8 1.4 9.8 5.7.5 2.4-.1 4.7-1.5 6.5-.8 1-1.2 2.2-1 3.4.8 8.6-1.5 17.4-7.1 24.8-7 9.3-17.7 14.3-28.6 14.3-2.1.0-4.1 1-5.3 2.7l-15.2 20.2c-1.2 1.6-.4 3.8 1.4 4.4 25.6 7.5 54.4-1 71.4-23.7 22-29.1 16.2-70.4-13-92.4z" id="svg_2"/><g id="svg_3"><path fill="#00a0ff" d="m218.6 34.3v-1.6c0-1.1-.9-2.1-2.1-2.1h-51.4c-1.1.0-2.1.9-2.1 2.1v3.1c0 1.1.9 2.1 2.1 2.1h43.6c1.3.0 2.2 1.1 2 2.3-1.2 8.1-5.1 23.3-17.1 37.9-.8 1-2.4 1-3.2.0-10-12.8-13.1-26-14-30.8-.2-1.1-1.2-1.8-2.2-1.7l-1.6.2-1.4.2c-1.2.1-2 1.2-1.8 2.4 1 5.6 4.8 20.8 16.5 35.4.7.8.6 2.1-.2 2.8-14.3 13.1-27.2 16-31.8 16.7-1 .1-1.8 1-1.8 2v3.2c0 1.2 1.1 2.2 2.3 2 5.5-.6 20.1-3.7 36.3-18.6.8-.7 2-.7 2.8.0 7.8 7.2 17.8 14.2 31.3 18.5 1.1.3 2.3-.3 2.6-1.4l.9-3c.3-1.1-.3-2.2-1.4-2.5-12.3-3.9-21.3-10.2-28.4-16.7-.8-.7-.9-2-.1-2.8 20-23.6 20.2-48.6 20.2-49.7z" id="svg_4"/><path fill="#00a0ff" d="m254.3 27.4h-3.1c-1.1.0-2.1.9-2.1 2.1v11c0 1.1-.9 2.1-2.1 2.1h-7.4c-1.1.0-2.1.9-2.1 2.1v3.1c0 1.1.9 2.1 2.1 2.1h7.4c1.1.0 2.1.9 2.1 2.1v15.9c0 1.1-.9 2.1-2.1 2.1h-7.4c-1.1.0-2.1.9-2.1 2.1v3.1c0 1.1.9 2.1 2.1 2.1h7.4c1.1.0 2.1.9 2.1 2.1v15.1c0 3.3-1.3 8.6-9.6 9.3-1.1.1-1.9 1-1.9 2v3.1c0 1.2 1 2.2 2.2 2.1 8.1-.7 16.6-5.3 16.6-16.5v-15.1c0-1.1.9-2.1 2.1-2.1h6.6c1.1.0 2.1-.9 2.1-2.1v-3.1c0-1.1-.9-2.1-2.1-2.1h-6.6c-1.1.0-2.1-.9-2.1-2.1v-15.9c0-1.1.9-2.1 2.1-2.1h6.6c1.1.0 2.1-.9 2.1-2.1v-3.1c0-1.1-.9-2.1-2.1-2.1h-6.6c-1.1.0-2.1-.9-2.1-2.1v-11c0-1.2-1-2.1-2.1-2.1z" id="svg_5"/><path fill="#00a0ff" d="m270.6 108.1c0 1.1.9 2.1 2.1 2.1h23.1c10.2.0 18.6-7.9 18.6-17.7v-48.6c0-1.1-.9-2.1-2.1-2.1h-39.7c-1.1.0-2.1.9-2.1 2.1v64.2h.1zm25.2-5.2h-15.9c-1.1.0-2.1-.9-2.1-2.1V79c0-1.1.9-2.1 2.1-2.1h25.2c1.1.0 2.1.9 2.1 2.1v13.4c0 5.8-5.1 10.5-11.4 10.5zm11.4-51.8v16.6c0 1.1-.9 2.1-2.1 2.1h-25.2c-1.1.0-2.1-.9-2.1-2.1v-16.6c0-1.1.9-2.1 2.1-2.1h25.2c1.1.0 2.1.9 2.1 2.1z" id="svg_6"/><path fill="#00a0ff" d="m302.2 27.3h-20.4c-1.1.0-2.1.9-2.1 2.1v3.1c0 1.1.9 2.1 2.1 2.1h20.4c1.1.0 2.1-.9 2.1-2.1v-3.1c-.1-1.2-1-2.1-2.1-2.1z" id="svg_7"/><path fill="#00a0ff" d="m380.3 30.5h-42.6c-1.1.0-2.1.9-2.1 2.1v3.1c0 1.1.9 2.1 2.1 2.1h42.6c1.1.0 2.1-.9 2.1-2.1v-3.1c0-1.2-1-2.1-2.1-2.1z" id="svg_8"/><path fill="#00a0ff" d="m362.1 66.8h29.7c1.1.0 2.1-.9 2.1-2.1v-3.1c0-1.1-.9-2.1-2.1-2.1h-65.5c-1.1.0-2.1.9-2.1 2.1v3.1c0 1.1.9 2.1 2.1 2.1h20.3c1.6.0 2.6 1.8 1.7 3.2l-13.5 24.3c-.4.5-.6 1.1-.8 1.6-1.1 3.3-.6 6.8 1.5 9.7 2.1 3 5.7 4.8 9.5 4.8h37c1.7.0 3.2-.8 4.1-2.2.9-1.4 1-3 .3-4.5l-8.6-16.6c-.5-1-1.8-1.4-2.8-.9l-2.8 1.4c-1 .5-1.4 1.8-.9 2.8l5.1 9.8c.7 1.4-.3 3-1.8 3h-29.5c-1.5.0-2.8-.6-3.6-1.8-.4-.5-.9-1.5-.6-2.8.1-.2.2-.4.3-.6l16.4-28.7c.8-1.5 2.6-2.5 4.5-2.5z" id="svg_9"/></g></g></g></svg>