<svg width="401" height="138" xmlns="http://www.w3.org/2000/svg">
 <g>
  <title>background</title>
  <rect x="-1" y="-1" width="403" height="142" id="canvas_background" fill="none"/>
 </g>

 <g>
  <title>Layer 1</title>
  <g id="svg_1">
   <path fill="#00a0ff" d="m109.6,16.2l0,0l0,0l0,0l0,0c-2.5,-1.9 -5,-3.5 -7.7,-5c-1.9,-1.1 -4.3,-0.6 -5.6,1.2l-16.5,21.9l-1.2,1.6c-1.8,2.4 -4.6,3.7 -7.6,3.5c-1.1,0 -2.2,0 -3.2,0c-8.3,0.5 -16.3,4.5 -21.7,11.7c-4.3,5.8 -6.2,12.6 -5.9,19.2c0.1,1.2 0.8,2.3 1.9,2.8c2.3,1 4,3.1 4.5,5.8c0.6,3.8 -1.7,7.6 -5.4,8.7c-4.4,1.3 -8.8,-1.4 -9.8,-5.7c-0.5,-2.4 0.1,-4.7 1.5,-6.5c0.8,-1 1.2,-2.2 1,-3.4c-0.8,-8.6 1.5,-17.4 7.1,-24.8c7,-9.3 17.7,-14.3 28.6,-14.3c2.1,0 4.1,-1 5.3,-2.7l15.2,-20.2c1.2,-1.6 0.4,-3.8 -1.5,-4.4c-25.4,-7.5 -53.9,0.9 -71,23.1c-22.1,28.8 -16.7,70.3 12,92.5c2.7,2.1 5.5,3.9 8.4,5.5c1.9,1.1 4.3,0.5 5.6,-1.2l16.5,-21.9l1.2,-1.6c1.8,-2.4 4.6,-3.7 7.6,-3.5c1.1,0 2.2,0 3.2,0c8.3,-0.5 16.3,-4.5 21.7,-11.7c4.3,-5.8 6.2,-12.6 5.9,-19.2c-0.1,-1.2 -0.8,-2.3 -1.9,-2.8c-2.3,-1 -4,-3.1 -4.5,-5.8c-0.6,-3.8 1.7,-7.6 5.4,-8.7c4.4,-1.3 8.8,1.4 9.8,5.7c0.5,2.4 -0.1,4.7 -1.5,6.5c-0.8,1 -1.2,2.2 -1,3.4c0.8,8.6 -1.5,17.4 -7.1,24.8c-7,9.3 -17.7,14.3 -28.6,14.3c-2.1,0 -4.1,1 -5.3,2.7l-15.2,20.2c-1.2,1.6 -0.4,3.8 1.4,4.4c25.6,7.5 54.4,-1 71.4,-23.7c22,-29.1 16.2,-70.4 -13,-92.4z" id="svg_2"/>
   <g id="svg_3">
    <path fill="#00a0ff" d="m218.6,34.3l0,-1.6c0,-1.1 -0.9,-2.1 -2.1,-2.1l-51.4,0c-1.1,0 -2.1,0.9 -2.1,2.1l0,3.1c0,1.1 0.9,2.1 2.1,2.1l43.6,0c1.3,0 2.2,1.1 2,2.3c-1.2,8.1 -5.1,23.3 -17.1,37.9c-0.8,1 -2.4,1 -3.2,0c-10,-12.8 -13.1,-26 -14,-30.8c-0.2,-1.1 -1.2,-1.8 -2.2,-1.7l-1.6,0.2l-1.4,0.2c-1.2,0.1 -2,1.2 -1.8,2.4c1,5.6 4.8,20.8 16.5,35.4c0.7,0.8 0.6,2.1 -0.2,2.8c-14.3,13.1 -27.2,16 -31.8,16.7c-1,0.1 -1.8,1 -1.8,2l0,3.2c0,1.2 1.1,2.2 2.3,2c5.5,-0.6 20.1,-3.7 36.3,-18.6c0.8,-0.7 2,-0.7 2.8,0c7.8,7.2 17.8,14.2 31.3,18.5c1.1,0.3 2.3,-0.3 2.6,-1.4l0.9,-3c0.3,-1.1 -0.3,-2.2 -1.4,-2.5c-12.3,-3.9 -21.3,-10.2 -28.4,-16.7c-0.8,-0.7 -0.9,-2 -0.1,-2.8c20,-23.6 20.2,-48.6 20.2,-49.7z" id="svg_4"/>
    <path fill="#00a0ff" d="m254.3,27.4l-3.1,0c-1.1,0 -2.1,0.9 -2.1,2.1l0,11c0,1.1 -0.9,2.1 -2.1,2.1l-7.4,0c-1.1,0 -2.1,0.9 -2.1,2.1l0,3.1c0,1.1 0.9,2.1 2.1,2.1l7.4,0c1.1,0 2.1,0.9 2.1,2.1l0,15.9c0,1.1 -0.9,2.1 -2.1,2.1l-7.4,0c-1.1,0 -2.1,0.9 -2.1,2.1l0,3.1c0,1.1 0.9,2.1 2.1,2.1l7.4,0c1.1,0 2.1,0.9 2.1,2.1l0,15.1c0,3.3 -1.3,8.6 -9.6,9.3c-1.1,0.1 -1.9,1 -1.9,2l0,3.1c0,1.2 1,2.2 2.2,2.1c8.1,-0.7 16.6,-5.3 16.6,-16.5l0,-15.1c0,-1.1 0.9,-2.1 2.1,-2.1l6.6,0c1.1,0 2.1,-0.9 2.1,-2.1l0,-3.1c0,-1.1 -0.9,-2.1 -2.1,-2.1l-6.6,0c-1.1,0 -2.1,-0.9 -2.1,-2.1l0,-15.9c0,-1.1 0.9,-2.1 2.1,-2.1l6.6,0c1.1,0 2.1,-0.9 2.1,-2.1l0,-3.1c0,-1.1 -0.9,-2.1 -2.1,-2.1l-6.6,0c-1.1,0 -2.1,-0.9 -2.1,-2.1l0,-11c0,-1.2 -1,-2.1 -2.1,-2.1z" id="svg_5"/>
    <path fill="#00a0ff" d="m270.6,108.1c0,1.1 0.9,2.1 2.1,2.1l23.1,0c10.2,0 18.6,-7.9 18.6,-17.7l0,-48.6c0,-1.1 -0.9,-2.1 -2.1,-2.1l-39.7,0c-1.1,0 -2.1,0.9 -2.1,2.1l0,64.2l0.1,0zm25.2,-5.2l-15.9,0c-1.1,0 -2.1,-0.9 -2.1,-2.1l0,-21.8c0,-1.1 0.9,-2.1 2.1,-2.1l25.2,0c1.1,0 2.1,0.9 2.1,2.1l0,13.4c0,5.8 -5.1,10.5 -11.4,10.5zm11.4,-51.8l0,16.6c0,1.1 -0.9,2.1 -2.1,2.1l-25.2,0c-1.1,0 -2.1,-0.9 -2.1,-2.1l0,-16.6c0,-1.1 0.9,-2.1 2.1,-2.1l25.2,0c1.1,0 2.1,0.9 2.1,2.1z" id="svg_6"/>
    <path fill="#00a0ff" d="m302.2,27.3l-20.4,0c-1.1,0 -2.1,0.9 -2.1,2.1l0,3.1c0,1.1 0.9,2.1 2.1,2.1l20.4,0c1.1,0 2.1,-0.9 2.1,-2.1l0,-3.1c-0.1,-1.2 -1,-2.1 -2.1,-2.1z" id="svg_7"/>
    <path fill="#00a0ff" d="m380.3,30.5l-42.6,0c-1.1,0 -2.1,0.9 -2.1,2.1l0,3.1c0,1.1 0.9,2.1 2.1,2.1l42.6,0c1.1,0 2.1,-0.9 2.1,-2.1l0,-3.1c0,-1.2 -1,-2.1 -2.1,-2.1z" id="svg_8"/>
    <path fill="#00a0ff" d="m362.1,66.8l29.7,0c1.1,0 2.1,-0.9 2.1,-2.1l0,-3.1c0,-1.1 -0.9,-2.1 -2.1,-2.1l-65.5,0c-1.1,0 -2.1,0.9 -2.1,2.1l0,3.1c0,1.1 0.9,2.1 2.1,2.1l20.3,0c1.6,0 2.6,1.8 1.7,3.2l-13.5,24.3c-0.4,0.5 -0.6,1.1 -0.8,1.6c-1.1,3.3 -0.6,6.8 1.5,9.7c2.1,3 5.7,4.8 9.5,4.8l37,0c1.7,0 3.2,-0.8 4.1,-2.2c0.9,-1.4 1,-3 0.3,-4.5l-8.6,-16.6c-0.5,-1 -1.8,-1.4 -2.8,-0.9l-2.8,1.4c-1,0.5 -1.4,1.8 -0.9,2.8l5.1,9.8c0.7,1.4 -0.3,3 -1.8,3l-29.5,0c-1.5,0 -2.8,-0.6 -3.6,-1.8c-0.4,-0.5 -0.9,-1.5 -0.6,-2.8c0.1,-0.2 0.2,-0.4 0.3,-0.6l16.4,-28.7c0.8,-1.5 2.6,-2.5 4.5,-2.5z" id="svg_9"/>
   </g>
  </g>
 </g>
</svg>